<svg class="engineDiagram" xmlns="http://www.w3.org/2000/svg" xmlns:svg="http://www.w3.org/2000/svg" viewBox="0 0 640 480">
 <!-- Created with SVG-edit - http://svg-edit.googlecode.com/ -->
 <g>
  <g id="wheel">
   <title>wheel</title>
   <path fill="#7f7f7f" stroke="#000000" stroke-width="5" stroke-dasharray="null" stroke-linejoin="null" stroke-linecap="null" d="m533.61401,20.17544c64.99976,-7.99996 55.66681,153.33321 2.66656,140.66656" id="svg_41"/>
   <ellipse stroke="#000000" ry="70" rx="29" id="svg_6" cy="90.17544" cx="531.61404" stroke-linecap="null" stroke-linejoin="null" stroke-dasharray="null" stroke-width="5" fill="#bfbfbf"/>
  </g>
   <rect stroke="#000000" id="hot_air" height="120" width="364.03509" y="260" x="112.6316" stroke-opacity="0" stroke-linecap="null" stroke-linejoin="null" stroke-dasharray="null" stroke-width="5" fill="#ff5656"/>
   <line id="cold_air" y1="216.49121" y2="216.49121" x1="112.63161" x2="477" stroke-opacity="1" stroke-linecap="null" stroke-linejoin="null" stroke-dasharray="null" stroke-width="230" stroke="#56aaff"/>
   <rect stroke="#fff" id="background" height="206" width="640" stroke-opacity="0" stroke-linecap="null" stroke-linejoin="null" stroke-dasharray="null" stroke-width="1" fill="#27ae60"/>
  <rect class="machine_background" stroke="#b2b2b2" id="svg_51" height="85.08772" width="12.28071" y="120.43859" x="474.03508" stroke-linecap="null" stroke-linejoin="null" stroke-dasharray="null" stroke-width="5" fill="#b2b2b2"/>
  <rect class="machine_background" stroke="#b2b2b2" id="svg_2" height="176" width="375" y="209.92982" x="108.07017" stroke-width="12" fill="none"/>
  <line stroke="#000000" id="crankshaft" y2="91.5614" x2="532.15789" y1="91.5614" x1="100.54386" stroke-linecap="null" stroke-linejoin="null" stroke-dasharray="null" stroke-width="5" fill="none"/>
  <rect class="crank_gap" stroke="none" id="crank_gap_left" x="291" y="88" height="7" width="15" stroke-linecap="null" stroke-linejoin="null" stroke-dasharray="null" stroke-width="1" fill="#27ae60"/>
  <rect class="crank_gap" stroke="none" id="crank_gap_right" x="441" y="88" height="7" width="15" stroke-linecap="null" stroke-linejoin="null" stroke-dasharray="null" stroke-width="1" fill="#27ae60"/>
  <g id="displacer_crank_group">
    <line class="displacer_crank_arm" stroke="#000" id="displacer_arm_left" x1="286" x2="291" y1="42" y2="42" stroke-linecap="null" stroke-linejoin="null" stroke-dasharray="null" stroke-width="100"/>
    <line class="displacer_crank_arm" stroke="#000" id="displacer_arm_left" x1="306" x2="311" y1="42" y2="42" stroke-linecap="null" stroke-linejoin="null" stroke-dasharray="null" stroke-width="100"/>
    <line stroke="#27ae60" id="displacer_arm_cover" x1="285" x2="312" y1="0" y2="0" stroke-linecap="null" stroke-linejoin="null" stroke-dasharray="null" stroke-width="100"/>
    <rect class="displacer_crank_middle" stroke="#000000" id="displacer_crank_middle" x="286.5" y="89.5" height="5" width="24" stroke-linecap="null" stroke-linejoin="null" stroke-dasharray="null" fill="#000"/>
  </g>
  <line stroke="#000000" id="svg_27" y2="391.05262" x2="103.36845" y1="206.84209" x1="103.49125" stroke-linecap="null" stroke-linejoin="null" stroke-dasharray="null" stroke-width="5" fill="none"/>
  <line stroke="#000000" id="svg_28" y2="390.05262" x2="101.61404" y1="390.05262" x1="483.31583" stroke-linecap="null" stroke-linejoin="null" stroke-dasharray="null" stroke-width="5" fill="none"/>
  <line id="svg_29" y2="392.80701" x2="486.31583" y1="205.0877" x1="486.31583" stroke-linecap="null" stroke-linejoin="null" stroke-dasharray="null" stroke-width="5" stroke="#000000" fill="none"/>
  <line stroke="#000000" id="svg_33" y2="205.0877" x2="404.73689" y1="205.0877" x1="100.35088" stroke-linecap="null" stroke-linejoin="null" stroke-dasharray="null" stroke-width="5" fill="none"/>
  <rect id="svg_53" stroke="#b2b2b2" height="85.08772" width="12.28071" y="119.99999" x="408.24561" stroke-linecap="null" stroke-linejoin="null" stroke-dasharray="null" stroke-width="5" fill="#b2b2b2"/>
  <line stroke="#000000" id="svg_56" y2="113.85963" x2="420.52636" y1="207.71928" x1="420.52636" stroke-linecap="null" stroke-linejoin="null" stroke-dasharray="null" stroke-width="5" fill="none"/>
  <line stroke="#000000" id="svg_57" y2="117.3684" x2="474.03511" y1="205.96489" x1="474.03512" stroke-linecap="null" stroke-linejoin="null" stroke-dasharray="null" stroke-width="5" fill="none"/>
  <line id="svg_58" y2="112.98244" x2="486.31583" y1="209.47367" x1="486.31583" stroke-linecap="null" stroke-linejoin="null" stroke-dasharray="null" stroke-width="5" stroke="#000000" fill="none"/>
  <line stroke="#000000" id="svg_59" y2="115.61401" x2="488.07021" y1="115.61401" x1="471.40355" stroke-linecap="null" stroke-linejoin="null" stroke-dasharray="null" stroke-width="5" fill="none"/>
  <line stroke="#000000" id="svg_60" y2="114.73682" x2="423.15793" y1="114.73682" x1="404.73688" stroke-linecap="null" stroke-linejoin="null" stroke-dasharray="null" stroke-width="5" fill="none"/>
  <line stroke="#000000" id="svg_61" y2="112.10524" x2="407.36846" y1="207.71928" x1="407.36846" stroke-linecap="null" stroke-linejoin="null" stroke-dasharray="null" stroke-width="5" fill="none"/>
  <g id="power_crank_group">
    <line class="crank_arm" stroke="#000" id="crank_arm_left" x1="436" x2="441" y1="69" y2="69" stroke-linecap="null" stroke-linejoin="null" stroke-dasharray="null" stroke-width="50" fill="#000"/>
    <rect class="crank_middle" stroke="#000000" id="power_crank_arm_middle" x="436.5" y="129.5" height="5" width="24" stroke-linecap="null" stroke-linejoin="null" stroke-dasharray="null" fill="#000"/>
    <line class="crank_arm" stroke="#000" id="crank_arm_right" x1="456" x2="461" y1="69" y2="69" stroke-linecap="null" stroke-linejoin="null" stroke-dasharray="null" stroke-width="50" fill="#000"/>
    <rect id="power_piston_shaft" y="129" x="446.5" height="150" width="5" stroke-linecap="null" stroke-linejoin="null" stroke-dasharray="null" stroke-width="5" stroke="none" fill="#000"/>
    <line stroke="#27ae60" id="power_arm_cover" x1="435" x2="465" y1="0" y2="0" stroke-linecap="null" stroke-linejoin="null" stroke-dasharray="null" stroke-width="100"/>
  </g>
 <rect stroke="#000000" id="power_piston_air" height="80" width="49" y="204" x="423.15793" stroke-opacity="0" stroke-linecap="null" stroke-linejoin="null" stroke-dasharray="null" stroke-width="5" fill="#56aaff"/>
  <rect id="displacer_piston_shaft" y="95" x="296" height="200" width="5" stroke-linecap="null" stroke-linejoin="null" stroke-dasharray="null" stroke-width="5" stroke="none" fill="#000"/>

  <rect id="displacer_piston" height="64" width="347" y="265.40352" x="120.80701" stroke-linecap="null" stroke-linejoin="null" stroke-dasharray="null" stroke-width="5" stroke="#000000" fill="#e5e5e5"/>
   <rect stroke="#000000" id="power_piston" height="24.5614" width="53.50877" y="180.52629" x="420.52635" stroke-linecap="null" stroke-linejoin="null" stroke-dasharray="null" stroke-width="5" fill="#00ff7f"/>
    <g id="water">
   <title transform="translate(-2,2) ">water</title>
   <rect fill="#fff" stroke-width="5" stroke-dasharray="null" stroke-linejoin="null" stroke-linecap="null" x="103" y="122" width="99" height="27" id="svg_14" stroke="#000000"/>
   <ellipse fill="#007fff" stroke-width="5" stroke-dasharray="null" stroke-linejoin="null" stroke-linecap="null" cx="199.5" cy="135.5" id="svg_15" rx="10.5" ry="13.5" stroke="#000000"/>
   <path d="m225.20605,145.73453c-13.26645,0.53004 -1.4355,-19.83006 -1.51631,-19.08221c-0.08081,0.74785 11.13969,18.76994 0.07281,19.2589" stroke-linecap="null" stroke-linejoin="null" stroke-dasharray="null" stroke-width="5" fill="#007fff" transform="rotate(-45 223.77702331542966,136.1884460449219) " stroke="#007fff" id="svg_46"/>
   <path d="m243.89502,169.93213c-13.26648,0.53006 -1.43549,-19.83006 -1.51633,-19.0822c-0.08081,0.74785 11.13968,18.76993 0.07285,19.2589" stroke-linecap="null" stroke-linejoin="null" stroke-dasharray="null" stroke-width="5" fill="#007fff" transform="rotate(-35 242.46597290039065,160.38606262207034) " stroke="#007fff" id="svg_40"/>
   <path d="m260.17905,153.79607c-13.26645,0.53006 -1.43546,-19.83006 -1.51633,-19.0822c-0.08081,0.74785 11.13968,18.76993 0.07285,19.2589" stroke-linecap="null" stroke-linejoin="null" stroke-dasharray="null" stroke-width="5" fill="#007fff" id="svg_39" transform="rotate(-55 258.75,144.25) " stroke="#007fff"/>
   <path d="m280.70444,180.63756c-13.26651,0.53004 -1.43552,-19.83006 -1.51633,-19.0822c-0.08081,0.74783 11.13965,18.76993 0.07281,19.25888" stroke-linecap="null" stroke-linejoin="null" stroke-dasharray="null" stroke-width="5" fill="#007fff" transform="rotate(-25 279.275390625,171.09147644042966) " stroke="#007fff" id="svg_42"/>
   <path d="m231.70447,193.63754c-13.26654,0.53004 -1.43555,-19.83006 -1.51633,-19.0822c-0.08084,0.74783 11.13962,18.76993 0.07278,19.25888" stroke-linecap="null" stroke-linejoin="null" stroke-dasharray="null" stroke-width="5" fill="#007fff" transform="rotate(-10 230.27537536621074,184.09147644042957) " stroke="#007fff" id="svg_43"/>
   <path d="m260.70444,194.63756c-13.26651,0.53004 -1.43552,-19.83006 -1.51633,-19.0822c-0.08081,0.74783 11.13965,18.76993 0.07281,19.25888" stroke-linecap="null" stroke-linejoin="null" stroke-dasharray="null" stroke-width="5" fill="#007fff" transform="rotate(-25 259.275390625,185.09149169921875) " stroke="#007fff" id="svg_44"/>
   <path d="m219.89499,166.93213c-13.26645,0.53004 -1.43549,-19.83008 -1.5163,-19.08221c-0.08081,0.74785 11.13968,18.76993 0.07281,19.25891" stroke-linecap="null" stroke-linejoin="null" stroke-dasharray="null" stroke-width="5" fill="#007fff" transform="rotate(-30 218.46595764160156,157.38604736328125) " stroke="#007fff" id="svg_47"/>
  </g>
  <g class="flame" id="flame3">
   <title transform="translate(-2,0) translate(-1,2) ">flame</title>
   <path id="svg_11" stroke="#f90000" d="m403.07565,454.55536c-34.90503,1.41748 -3.77679,-53.03149 -3.98947,-51.03149c-0.21265,2 29.3093,50.19635 0.19156,51.50403" stroke-linecap="null" stroke-linejoin="null" stroke-dasharray="null" stroke-width="5" fill="#ff0000"/>
   <path id="svg_12" stroke="#ff7f00" d="m402.30002,448.56195c-24.00308,0.94604 -2.5972,-35.39325 -2.74347,-34.05844c-0.14621,1.33475 20.15509,33.50107 0.13177,34.37381" stroke-linecap="null" stroke-linejoin="null" stroke-dasharray="null" stroke-width="5" fill="#ffff00"/>
  </g>
  <g class="flame" id="flame2">
   <title transform="translate(0,-1.754386067390442) translate(-20,189) translate(-81.28305053710938,-187.24835205078125) " id="svg_25">flame</title>
   <path id="svg_26" stroke="#f90000" d="m304.7926,452.55261c-34.90503,1.41748 -3.77679,-53.03149 -3.98947,-51.03149c-0.21265,2 29.3093,50.19635 0.19156,51.50403" stroke-linecap="null" stroke-linejoin="null" stroke-dasharray="null" stroke-width="5" fill="#ff0000"/>
   <path id="svg_30" stroke="#ff7f00" d="m304.01697,446.5592c-24.00308,0.94604 -2.5972,-35.39325 -2.74347,-34.05844c-0.14621,1.33475 20.15509,33.50107 0.13177,34.37381" stroke-linecap="null" stroke-linejoin="null" stroke-dasharray="null" stroke-width="5" fill="#ffff00"/>
  </g>
  <g class="flame" id="flame1">
   <title id="svg_32" transform="translate(-120,189) translate(-80.28305053710938,-189.24835205078125) translate(-1,2) ">flame</title>
   <path id="svg_34" stroke="#f90000" d="m204.7926,454.30701c-34.90503,1.41748 -3.77679,-53.03149 -3.98947,-51.03149c-0.21265,2 29.3093,50.19635 0.19156,51.50403" stroke-linecap="null" stroke-linejoin="null" stroke-dasharray="null" stroke-width="5" fill="#ff0000"/>
   <path id="svg_35" stroke="#ff7f00" d="m204.01697,448.3136c-24.00308,0.94604 -2.5972,-35.39325 -2.74347,-34.05844c-0.14621,1.33475 20.15509,33.50107 0.13177,34.37381" stroke-linecap="null" stroke-linejoin="null" stroke-dasharray="null" stroke-width="5" fill="#ffff00"/>
  </g>
 </g>
</svg>
